<?xml version="1.0" encoding="utf-8"?>
<!-- Generator: Adobe Illustrator 19.2.1, SVG Export Plug-In . SVG Version: 6.00 Build 0)  -->
<svg version="1.1" id="layer" xmlns="http://www.w3.org/2000/svg" xmlns:xlink="http://www.w3.org/1999/xlink" x="0px" y="0px"
	 viewBox="0 0 652 652" style="enable-background:new 0 0 652 652;" xml:space="preserve">
<path d="M621.9,368.9h-17l-6.7-21.4h-25.3l-7.1,21.4h-17l29.7-95.8h14.2L621.9,368.9z M576.4,331.7h17.8l-9.1-29.7L576.4,331.7z
	 M270,273.1h15.4l22.2,42.3c0,0,14.9-28.3,22.6-42.3h15.4c0,30.4,0,64.1,0,95.8h-15.2v-57.8l-17.6,32h-10.3L285,310.7v58.2h-15
	C270,368.9,270,273.1,270,273.1z M371.3,273.1h17v95.8h-17V273.1z M36.1,368.9H21.9v-95.8h38l0,0c12.1,0,22.9,7.3,22.9,17.3
	c0,7.9,0.4,21.3,0.4,27.8c0,9.3-10.1,16.6-23.1,16.6h-24V368.9z M36.1,321h24.9c3.2,0,7-2.1,7-5.3s0-5.8,0-11.7v-9.1
	c0-4.4-4.4-6.4-7.5-6.4H36.1C36.1,288.4,36.1,321,36.1,321z M248.2,368.9h-58.2v-95.8h58.2v14.6c-14.8,0-42.9,0-42.9,0v23.5h33v14.4
	h-33v29.3h42.9V368.9z M479.3,368.9h-17l-6.7-21.4h-25.3l-7.1,21.4h-17l29.7-95.8H450L479.3,368.9L479.3,368.9z M433.8,331.7h17.8
	l-9.1-29.7C442.5,302,433.8,331.7,433.8,331.7z M521.6,368.9h-15.8v-80h-24.1v-15.7h64.1v15.7h-24.1
	C521.6,288.9,521.6,368.9,521.6,368.9z M165.1,323.4c1.6-3.6,1.5-11.8,1.4-19.4c-0.2-8.7,0.2-16.6-2.2-20.4
	c-3.9-6.3-10.4-9.4-18.6-10.5h-41.1v95.8H120v-33.6h14.1c4.4,0,7.1,11.2,8.9,15.8c2.8,7.5,6.7,17.8,6.7,17.8s10.8,0,16.2,0
	c-4-11.3-12.2-32-12.3-33.6C153.6,333.6,161.6,331.4,165.1,323.4z M151.7,315.2c0,3.2-3.8,5.3-7,5.3h-24.9v-32.5h24.4
	c3,0,7.5,2.3,7.5,6.7L151.7,315.2L151.7,315.2z"/>
</svg>
